<svg xmlns="http://www.w3.org/2000/svg" xmlns:xlink="http://www.w3.org/1999/xlink" width="218" height="177"><defs><filter id="d" width="120.7%" height="136.5%" x="-10.3%" y="-18.3%" filterUnits="objectBoundingBox"><feOffset in="SourceAlpha" result="shadowOffsetOuter1"/><feGaussianBlur in="shadowOffsetOuter1" result="shadowBlurOuter1" stdDeviation="3.5"/><feColorMatrix in="shadowBlurOuter1" values="0 0 0 0 0 0 0 0 0 0 0 0 0 0 0 0 0 0 0.1 0"/></filter><filter id="a" width="137.6%" height="121.3%" x="-18.8%" y="-10.7%" filterUnits="objectBoundingBox"><feMorphology in="SourceAlpha" operator="dilate" radius=".321" result="shadowSpreadOuter1"/><feOffset in="shadowSpreadOuter1" result="shadowOffsetOuter1"/><feGaussianBlur in="shadowOffsetOuter1" result="shadowBlurOuter1" stdDeviation="3.5"/><feComposite in="shadowBlurOuter1" in2="SourceAlpha" operator="out" result="shadowBlurOuter1"/><feColorMatrix in="shadowBlurOuter1" values="0 0 0 0 0 0 0 0 0 0 0 0 0 0 0 0 0 0 0.1 0"/></filter><filter id="g" width="121.3%" height="137.6%" x="-10.7%" y="-18.8%" filterUnits="objectBoundingBox"><feMorphology in="SourceAlpha" operator="dilate" radius=".321" result="shadowSpreadOuter1"/><feOffset in="shadowSpreadOuter1" result="shadowOffsetOuter1"/><feMorphology in="SourceAlpha" radius="1" result="shadowInner"/><feOffset in="shadowInner" result="shadowInner"/><feComposite in="shadowOffsetOuter1" in2="shadowInner" operator="out" result="shadowOffsetOuter1"/><feGaussianBlur in="shadowOffsetOuter1" result="shadowBlurOuter1" stdDeviation="3.5"/><feColorMatrix in="shadowBlurOuter1" values="0 0 0 0 0 0 0 0 0 0 0 0 0 0 0 0 0 0 0.1 0"/></filter><filter id="i" width="137.6%" height="121.3%" x="-18.8%" y="-10.7%" filterUnits="objectBoundingBox"><feMorphology in="SourceAlpha" operator="dilate" radius=".321" result="shadowSpreadOuter1"/><feOffset in="shadowSpreadOuter1" result="shadowOffsetOuter1"/><feGaussianBlur in="shadowOffsetOuter1" result="shadowBlurOuter1" stdDeviation="3.5"/><feComposite in="shadowBlurOuter1" in2="SourceAlpha" operator="out" result="shadowBlurOuter1"/><feColorMatrix in="shadowBlurOuter1" values="0 0 0 0 0 0 0 0 0 0 0 0 0 0 0 0 0 0 0.1 0"/></filter><path id="e" d="M123.71 21.708a13.066 13.066 0 013.435 8.85c0 7.247-5.886 13.125-13.144 13.125-7.257 0-13.143-5.878-13.143-13.126a13.07 13.07 0 013.439-8.849H85.209V40.68a13.113 13.113 0 00-8.755-3.337c-7.258 0-13.144 5.878-13.144 13.126 0 7.248 5.882 13.126 13.144 13.126 3.362 0 6.43-1.264 8.755-3.337v18.97h19.088a13.07 13.07 0 01-3.439-8.849c0-7.247 5.886-13.126 13.143-13.126 7.258 0 13.144 5.874 13.144 13.126 0 3.41-1.304 6.515-3.435 8.85h19.088V60.063a13.108 13.108 0 008.967 3.535c7.257 0 13.143-5.878 13.143-13.126 0-7.248-5.882-13.126-13.143-13.126-3.469 0-6.62 1.344-8.967 3.535V21.708H123.71z"/><path id="b" d="M57.67 98.492a13.102 13.102 0 01-8.861 3.43c-7.257 0-13.143-5.874-13.143-13.127 0-7.252 5.886-13.126 13.143-13.126a13.12 13.12 0 018.86 3.43V60.04H38.674a13.075 13.075 0 003.342-8.739c0-7.248-5.886-13.126-13.144-13.126-7.257 0-13.143 5.874-13.143 13.126 0 3.359 1.266 6.422 3.342 8.74H.08v19.063a13.106 13.106 0 018.86-3.434c7.258 0 13.144 5.879 13.144 13.126 0 7.248-5.886 13.127-13.144 13.127a13.122 13.122 0 01-8.86-3.43v19.063h19.19a13.065 13.065 0 00-3.54 8.955c0 7.248 5.885 13.126 13.142 13.126 7.258 0 13.144-5.878 13.144-13.126 0-3.464-1.346-6.612-3.54-8.955h19.19V98.492h.003z"/><path id="h" d="M60.454.658a13.066 13.066 0 013.435 8.85c0 7.247-5.882 13.126-13.144 13.126-7.257 0-13.143-5.879-13.143-13.127A13.07 13.07 0 0141.041.658H21.953V19.63a13.102 13.102 0 00-8.751-3.337C5.945 16.292.059 22.17.059 29.418S5.94 42.544 13.202 42.544c3.363 0 6.43-1.264 8.75-3.337v18.97h19.089a13.07 13.07 0 01-3.439-8.849c0-7.247 5.886-13.126 13.143-13.126 7.258 0 13.144 5.874 13.144 13.126 0 3.41-1.304 6.515-3.435 8.85h19.088V39.004a13.1 13.1 0 008.966 3.536c7.258 0 13.144-5.878 13.144-13.126 0-7.248-5.886-13.127-13.144-13.127-3.468 0-6.62 1.345-8.966 3.536V.658H60.454z"/><path id="j" d="M57.817 60.912a13.102 13.102 0 01-8.86 3.43c-7.258 0-13.144-5.878-13.144-13.126 0-7.248 5.886-13.126 13.143-13.126 3.414 0 6.524 1.302 8.861 3.434V22.461H38.822a13.075 13.075 0 003.341-8.74C42.163 6.473 36.282.595 29.02.595c-7.257 0-13.143 5.878-13.143 13.126 0 3.359 1.266 6.422 3.342 8.74H.223v19.063a13.106 13.106 0 018.86-3.434c7.258 0 13.144 5.878 13.144 13.126 0 7.248-5.886 13.127-13.143 13.127a13.122 13.122 0 01-8.86-3.43v19.063h19.189a13.073 13.073 0 00-3.54 8.955c0 7.247 5.886 13.126 13.143 13.126 7.257 0 13.143-5.874 13.143-13.126 0-3.464-1.346-6.612-3.536-8.955h19.19V60.912h.004z"/><linearGradient id="f" x1="7.327%" x2="77.92%" y1="30.912%" y2="100%"><stop offset="0%" stop-color="#0FC8C1"/><stop offset="100%" stop-color="#05A59F"/></linearGradient><linearGradient id="k" x1=".005%" x2="99.996%" y1="49.999%" y2="49.999%"><stop offset="0%" stop-color="#FFF"/><stop offset="100%" stop-color="#EBEBEB" stop-opacity="0"/></linearGradient><linearGradient id="c" x1=".003%" x2="100.002%" y1="49.998%" y2="49.998%"><stop offset="0%" stop-color="#FFF"/><stop offset="100%" stop-color="#EBEBEB" stop-opacity="0"/></linearGradient></defs><g fill="none" fill-rule="evenodd"><g fill-rule="nonzero"><g transform="scale(-1 1) rotate(45 -.692 -122.644)"><use fill="#000" filter="url(#a)" xlink:href="#b"/><use fill="url(#c)" stroke="#9EB1C7" stroke-width=".643" xlink:href="#b"/></g><g transform="scale(-1 1) rotate(75 16.236 -35.969)"><use fill="#000" filter="url(#d)" xlink:href="#e"/><use fill="url(#f)" xlink:href="#e"/></g></g><g transform="scale(-1 1) rotate(45 -131.033 -207.661)"><use fill="#000" filter="url(#g)" xlink:href="#h"/><use stroke="#9EB1C7" stroke-width=".643" xlink:href="#h"/></g><g fill-rule="nonzero" transform="scale(-1 1) rotate(45 -144.244 -100.953)"><use fill="#000" filter="url(#i)" xlink:href="#j"/><use fill="url(#k)" stroke="#9EB1C7" stroke-width=".643" xlink:href="#j"/></g></g></svg>