<svg xmlns="http://www.w3.org/2000/svg" width="253" height="190"><defs><linearGradient id="b" x1="93.754%" x2="10.254%" y1="4.28%" y2="92.641%"><stop offset="0%" stop-color="#007472"/><stop offset="100%" stop-color="#0CA8A2"/></linearGradient><linearGradient id="h" x1=".001%" x2="99.998%" y1="49.987%" y2="49.987%"><stop offset="0%" stop-color="#FFF"/><stop offset="100%" stop-color="#6D6352"/></linearGradient><linearGradient id="c" x1="13.921%" x2="119.112%" y1="90.807%" y2="-36.632%"><stop offset="0%" stop-color="#0FC8C1"/><stop offset="100%" stop-color="#4AF1EB"/></linearGradient><linearGradient id="d" x1="100.003%" x2="0%" y1="49.999%" y2="49.999%"><stop offset="0%" stop-color="#45F3ED"/><stop offset="100%" stop-color="#0FC8C1"/></linearGradient><linearGradient id="e" x1=".003%" x2="100.004%" y1="49.998%" y2="49.998%"><stop offset="0%" stop-color="#F3F3F3"/><stop offset="100%" stop-color="#6D6352"/></linearGradient><linearGradient id="f" x1="-.003%" x2="100.004%" y1="50.003%" y2="50.003%"><stop offset="0%" stop-color="#FFF"/><stop offset="100%" stop-color="#6D6352"/></linearGradient><linearGradient id="g" x1="-.003%" x2="100.005%" y1="50%" y2="50%"><stop offset="0%" stop-color="#FFF"/><stop offset="100%" stop-color="#6D6352"/></linearGradient><linearGradient id="o" x1="1.563%" x2="110.987%" y1="70.422%" y2="36.685%"><stop offset="0%" stop-color="#FFF"/><stop offset="100%" stop-color="#6D6352"/></linearGradient><linearGradient id="i" x1=".005%" x2="99.997%" y1="49.995%" y2="49.995%"><stop offset="0%" stop-color="#FFF"/><stop offset="100%" stop-color="#6D6352"/></linearGradient><linearGradient id="j" x1="1.124%" x2="100.57%" y1="104.187%" y2="6.08%"><stop offset="0%" stop-color="#FFF"/><stop offset="100%" stop-color="#6D6352"/></linearGradient><linearGradient id="k" x1="1.556%" x2="110.99%" y1="70.417%" y2="36.678%"><stop offset="0%" stop-color="#FFF"/><stop offset="100%" stop-color="#6D6352"/></linearGradient><linearGradient id="l" x1="-.885%" x2="105.058%" y1="97.247%" y2="15.645%"><stop offset="0%" stop-color="#FFF"/><stop offset="100%" stop-color="#6D6352"/></linearGradient><linearGradient id="m" x1="-6.911%" x2="124.994%" y1="77.612%" y2="33.547%"><stop offset="0%" stop-color="#FFF"/><stop offset="100%" stop-color="#FFF"/></linearGradient><linearGradient id="n" x1="1.126%" x2="100.568%" y1="104.199%" y2="6.097%"><stop offset="0%" stop-color="#FFF"/><stop offset="100%" stop-color="#6D6352"/></linearGradient><filter id="a" width="113.3%" height="113%" x="-6.7%" y="-5.3%" filterUnits="objectBoundingBox"><feOffset dy="2" in="SourceAlpha" result="shadowOffsetOuter1"/><feGaussianBlur in="shadowOffsetOuter1" result="shadowBlurOuter1" stdDeviation="4"/><feColorMatrix in="shadowBlurOuter1" result="shadowMatrixOuter1" values="0 0 0 0 0 0 0 0 0 0 0 0 0 0 0 0 0 0 0.1 0"/><feMerge><feMergeNode in="shadowMatrixOuter1"/><feMergeNode in="SourceGraphic"/></feMerge></filter></defs><g fill="none" filter="url(#a)" transform="scale(-1 1) rotate(10 68.51 -1234.601)"><path fill="#007975" d="M209.354.496l-56.685 69.885.628-25.62z"/><path fill="url(#b)" d="M19.24 44.76v.004l8.883 25.617 4.661-16.038L84.808.496z" transform="translate(124.546)"/><path fill="#0028DD" d="M124.8 39.512L209.355.496 143.786 44.76z"/><path fill="url(#c)" d="M.255 39.512L84.808.496 19.24 44.76z" transform="translate(124.546)"/><path fill="#0028DD" d="M209.354.496l-27.478 71.216-24.546-17.37z"/><path fill="url(#d)" d="M84.808.426L57.33 71.642l-24.546-17.37z" transform="translate(124.546)"/><g stroke="#9EB1C7" stroke-width=".874"><path fill="#F3F3F3" d="M108.953 49.433L65.03 83.12l2.928-16.86z"/><path fill="#F3F3F3" d="M62.134 65.383v.005L65.03 83.12l4.446-10.162 39.477-23.526z"/><path fill="url(#e)" d="M11.319 16.636v.004l2.896 17.734 4.446-10.163L58.138.685z" opacity=".1" transform="translate(50.815 48.748)"/><path fill="#F3F3F3" d="M51.035 60.17l57.918-10.737-46.82 15.95z"/><path fill="url(#f)" d="M.22 11.423L58.138.685l-46.82 15.95z" opacity=".1" transform="translate(50.815 48.748)"/><path fill="#F3F3F3" d="M108.953 49.433L82.778 86.687 69.476 72.96z"/><path fill="url(#g)" d="M58.138.685L31.963 37.94 18.661 24.21z" opacity=".1" transform="translate(50.815 48.748)"/></g><g stroke="#9EB1C7" stroke-width=".874"><path fill="#F3F3F3" d="M61.203 99.568l-37.207 15.437 5.222-11.304z"/><path fill="#F3F3F3" d="M25.286 101.992l-1.29 13.013 5.03-6.306 32.177-9.13z"/><path fill="url(#e)" d="M6.948 6.254l-1.29 13.012 5.029-6.306 32.178-9.13z" opacity=".1" transform="translate(18.339 95.739)"/><path fill="#F3F3F3" d="M18.457 96.24l42.746 3.328-35.917 2.424z"/><path fill="url(#h)" d="M.119.5l42.746 3.33L6.948 6.254z" opacity=".1" transform="translate(18.339 95.739)"/><path fill="#F3F3F3" d="M61.203 99.568L35.806 120.85l-6.78-12.151z"/><path fill="url(#i)" d="M42.865 3.83L17.467 25.112l-6.78-12.152z" opacity=".1" transform="translate(18.339 95.739)"/></g><g stroke="#9EB1C7" stroke-width=".874"><path fill="#F3F3F3" d="M157.43 139.115l-32.63 24.168 3.226-10.91z"/><path fill="#F3F3F3" d="M123.77 151.882v.004l1.03 11.397 4.499-6.074 28.132-18.094z"/><path fill="url(#e)" d="M8 13.105v.004l1.032 11.397 4.499-6.074L41.662.338z" opacity=".1" transform="translate(115.768 138.777)"/><path fill="#F3F3F3" d="M116.019 150.876l41.412-11.76-33.662 12.766z"/><path fill="url(#j)" d="M.25 12.1L41.662.337 8.001 13.105z" opacity=".1" transform="translate(115.768 138.777)"/><path fill="#F3F3F3" d="M157.43 139.115l-18.116 27.751-10.015-9.657z"/><path fill="url(#k)" d="M41.662.338L23.546 28.09 13.53 18.432z" opacity=".1" transform="translate(115.768 138.777)"/></g><g stroke="#9EB1C7" stroke-width=".874"><path fill="#F3F3F3" d="M171.677 79.67l-28.94 40.381 1.664-13.785z"/><path fill="#F3F3F3" d="M139.178 106.538v.004l3.56 13.509 4.173-8.226 24.766-32.155z"/><path fill="url(#e)" d="M9.805 27.488v.004l3.559 13.509 4.174-8.226L42.303.62z" opacity=".1" transform="translate(129.373 79.05)"/><path fill="#F3F3F3" d="M129.641 106.911l42.036-27.241-32.499 26.868z"/><path fill="url(#l)" d="M.268 27.86L42.303.62 9.805 27.487z" opacity=".1" transform="translate(129.373 79.05)"/><path fill="#F3F3F3" d="M171.677 79.67l-12.008 37.004-12.758-4.849z"/><path fill="url(#m)" d="M42.303.62L30.296 37.623l-12.758-4.849z" opacity=".1" transform="translate(129.373 79.05)"/></g><g stroke="#9EB1C7" stroke-width=".874"><path fill="#F3F3F3" d="M116.22 111.448L62.6 149.853l5.573-17.33z"/><path fill="#F3F3F3" d="M61.203 130.653v.004l1.396 19.196 6.495-8.963 47.127-29.442z"/><path fill="url(#e)" fill-opacity=".1" d="M11.705 19.543v.004l1.396 19.196 6.495-8.959L66.722.338z" transform="translate(49.499 111.11)"/><path fill="#F3F3F3" d="M49.78 125.571l66.44-14.123-55.017 19.205z"/><path fill="url(#e)" fill-opacity=".1" d="M.281 14.462L66.722.338 11.705 19.543z" transform="translate(49.499 111.11)"/><path fill="#F3F3F3" d="M116.22 111.448l-32.823 47.996-14.303-18.554z"/><path fill="url(#e)" fill-opacity=".1" d="M66.722.338L33.9 48.335 19.596 29.78z" transform="translate(49.499 111.11)"/></g><g stroke="#9EB1C7" stroke-width=".874"><path fill="#F3F3F3" d="M62.6 165.694l-48.988 36.284 4.85-16.377z"/><path fill="#F3F3F3" d="M12.072 184.86l-.005.003 1.545 17.115 6.754-9.117L62.6 165.694z"/><path fill="url(#e)" d="M11.727 19.732l-.004.004 1.544 17.115 6.755-9.117L62.254.567z" opacity=".1" transform="translate(.345 165.127)"/><path fill="#F3F3F3" d="M.433 183.353l62.166-17.66-50.527 19.166z"/><path fill="url(#n)" d="M.088 18.226L62.254.566 11.727 19.733z" opacity=".1" transform="translate(.345 165.127)"/><path fill="#F3F3F3" d="M62.6 165.694l-27.198 41.66-15.036-14.493z"/><path fill="url(#o)" d="M62.254.567l-27.197 41.66-15.035-14.493z" opacity=".1" transform="translate(.345 165.127)"/></g></g></svg>