<svg xmlns="http://www.w3.org/2000/svg" xmlns:xlink="http://www.w3.org/1999/xlink" width="399" height="181"><defs><filter id="h" width="110.8%" height="117.8%" x="-5.4%" y="-7.8%" filterUnits="objectBoundingBox"><feGaussianBlur in="SourceAlpha" result="shadowBlurInner1" stdDeviation="2"/><feOffset dy="1" in="shadowBlurInner1" result="shadowOffsetInner1"/><feComposite in="shadowOffsetInner1" in2="SourceAlpha" k2="-1" k3="1" operator="arithmetic" result="shadowInnerInner1"/><feColorMatrix in="shadowInnerInner1" values="0 0 0 0 0 0 0 0 0 0 0 0 0 0 0 0 0 0 0.1 0"/></filter><filter id="f" width="111.5%" height="118.9%" x="-5.8%" y="-8.3%" filterUnits="objectBoundingBox"><feMorphology in="SourceAlpha" operator="dilate" radius=".4" result="shadowSpreadOuter1"/><feOffset dy="1" in="shadowSpreadOuter1" result="shadowOffsetOuter1"/><feMorphology in="SourceAlpha" radius="1" result="shadowInner"/><feOffset dy="1" in="shadowInner" result="shadowInner"/><feComposite in="shadowOffsetOuter1" in2="shadowInner" operator="out" result="shadowOffsetOuter1"/><feGaussianBlur in="shadowOffsetOuter1" result="shadowBlurOuter1" stdDeviation="2.5"/><feColorMatrix in="shadowBlurOuter1" values="0 0 0 0 0 0 0 0 0 0 0 0 0 0 0 0 0 0 0.1 0"/></filter><filter id="c" width="111.5%" height="126%" x="-5.8%" y="-11.4%" filterUnits="objectBoundingBox"><feMorphology in="SourceAlpha" operator="dilate" radius=".4" result="shadowSpreadOuter1"/><feOffset dy="1" in="shadowSpreadOuter1" result="shadowOffsetOuter1"/><feMorphology in="SourceAlpha" radius="1" result="shadowInner"/><feOffset dy="1" in="shadowInner" result="shadowInner"/><feComposite in="shadowOffsetOuter1" in2="shadowInner" operator="out" result="shadowOffsetOuter1"/><feGaussianBlur in="shadowOffsetOuter1" result="shadowBlurOuter1" stdDeviation="2.5"/><feColorMatrix in="shadowBlurOuter1" values="0 0 0 0 0 0 0 0 0 0 0 0 0 0 0 0 0 0 0.1 0"/></filter><filter id="e" width="110.8%" height="124.4%" x="-5.4%" y="-10.7%" filterUnits="objectBoundingBox"><feGaussianBlur in="SourceAlpha" result="shadowBlurInner1" stdDeviation="2"/><feOffset dy="1" in="shadowBlurInner1" result="shadowOffsetInner1"/><feComposite in="shadowOffsetInner1" in2="SourceAlpha" k2="-1" k3="1" operator="arithmetic" result="shadowInnerInner1"/><feColorMatrix in="shadowInnerInner1" values="0 0 0 0 0 0 0 0 0 0 0 0 0 0 0 0 0 0 0.1 0"/></filter><filter id="i" width="111.4%" height="120.5%" x="-5.7%" y="-9%" filterUnits="objectBoundingBox"><feMorphology in="SourceAlpha" operator="dilate" radius=".498" result="shadowSpreadOuter1"/><feOffset dy="2" in="shadowSpreadOuter1" result="shadowOffsetOuter1"/><feGaussianBlur in="shadowOffsetOuter1" result="shadowBlurOuter1" stdDeviation="5"/><feComposite in="shadowBlurOuter1" in2="SourceAlpha" operator="out" result="shadowBlurOuter1"/><feColorMatrix in="shadowBlurOuter1" values="0 0 0 0 0 0 0 0 0 0 0 0 0 0 0 0 0 0 0.1 0"/></filter><filter id="l" width="110.4%" height="118.7%" x="-5.2%" y="-8.1%" filterUnits="objectBoundingBox"><feGaussianBlur in="SourceAlpha" result="shadowBlurInner1" stdDeviation="4"/><feOffset dy="1" in="shadowBlurInner1" result="shadowOffsetInner1"/><feComposite in="shadowOffsetInner1" in2="SourceAlpha" k2="-1" k3="1" operator="arithmetic" result="shadowInnerInner1"/><feColorMatrix in="shadowInnerInner1" values="0 0 0 0 0 0 0 0 0 0 0 0 0 0 0 0 0 0 0.1 0"/></filter><path id="d" d="M87.307 144.942a11.26 11.26 0 018.166-3.492c3.702 0 6.988 1.781 9.047 4.533a16.756 16.756 0 017.007-1.525c8.22 0 15.05 5.581 16.505 13.3a8.817 8.817 0 012.058-.267c3.094 0 5.897 1.244 7.936 3.258h8.62-8.62l.028.029c-1.52 0-3.186-.01-4.997-.029h-4.739v.1c-2.772-.04-5.412-.073-7.904-.1h-95.15c-.16.026-.6.02-1.555.008-1.275.028-2.525.058-3.732.091 0-.157-.004-.035-.002-.099h-3.81c-1.92.017-4.226.047-6.992.1l.099-.1H.652h8.62a11.257 11.257 0 017.936-3.258c1.074 0 2.115.125 3.102.37 1.569-7.65 8.344-13.403 16.464-13.403 3.096 0 5.996.836 8.486 2.295a11.3 11.3 0 017.288-5.071 11.347 11.347 0 012.287-.232 11.25 11.25 0 017.386 2.749 34.492 34.492 0 005.098-18.103v-5.868H56.276l18.878-24.104 18.662 24.104-11.947.094v6.061a34.205 34.205 0 005.438 18.56zm45.75 15.807a754.901 754.901 0 01-4.74-.065l.001.065h4.74zm-12.643 0c-2.189-.023-4.264-.042-6.214-.059.673.04 1.352.06 2.036.06h4.178zm-104.25 0h3.81l.001-.016c-1.06 0-2.318.004-3.81.016zm9.1 0h7.402a35.22 35.22 0 003.636-.188c-3.567.039-7.341.091-10.967.163-.008.01-.03.019-.071.025z"/><path id="j" d="M189.684 122.79c1.73-.43 3.54-.657 5.402-.657 7.344 0 13.863 3.54 17.946 9.009a33.181 33.181 0 0113.9-3.03c16.306 0 29.854 11.093 32.74 26.436 1.466-.354 2.827-.532 4.08-.532a22.306 22.306 0 0115.743 6.477h17.098-17.098c.02.018.038.037.057.056-3.016 0-6.32-.019-9.913-.056h-9.4v.197c-5.498-.08-10.735-.144-15.68-.197H55.82c-.316.05-1.188.038-3.084.016-2.53.055-5.008.115-7.403.18 0-.313-.008-.07-.004-.196H37.77c-3.807.032-8.381.092-13.868.197.065-.066.13-.132.197-.197H7h17.098a22.306 22.306 0 0115.742-6.477c2.13 0 4.195.248 6.153.737 3.112-15.205 16.551-26.642 32.659-26.642 6.14 0 11.892 1.662 16.833 4.561 3.19-5.1 8.372-8.825 14.456-10.079a22.464 22.464 0 014.537-.46c1.186 0 2.35.092 3.486.27 13.327-16.944 21.277-38.317 21.277-61.546V47.91h-21.906L154.782 0 191.8 47.91l-23.698.187v12.76c0 23.406 8.071 44.928 21.582 61.933zm79.955 37.703c-1.829-.02-3.732-.043-5.71-.072 1.263.048 2.534.072 3.81.072h1.9zm-231.87 0h1.836c.768 0 1.534-.009 2.298-.026-1.266.005-2.64.013-4.134.026z"/><path id="g" d="M252.835 141.785a11.322 11.322 0 012.741-.335c3.703 0 6.989 1.781 9.047 4.533a16.756 16.756 0 017.008-1.525c8.22 0 15.05 5.581 16.505 13.3a8.817 8.817 0 012.057-.267 11.26 11.26 0 017.937 3.258h8.62-8.62l.028.029c-1.52 0-3.186-.01-4.997-.029h-4.74v.1c-2.77-.04-5.411-.073-7.904-.1h-95.15c-.159.026-.599.02-1.554.008-1.276.028-2.525.058-3.732.091 0-.157-.005-.035-.003-.099h-3.81c-1.92.017-4.226.047-6.992.1l.1-.1h-8.62 8.62a11.257 11.257 0 017.936-3.258c1.073 0 2.115.125 3.102.37 1.569-7.65 8.344-13.403 16.464-13.403 3.095 0 5.995.836 8.486 2.295a11.3 11.3 0 017.288-5.071 11.347 11.347 0 014.064-.093 49.913 49.913 0 0010.707-30.967V96.198h-11.044l18.879-24.104 18.661 24.104-11.946.094v14.33a49.915 49.915 0 0010.862 31.163zm40.326 18.964c-.971-.01-1.984-.022-3.038-.038a49.92 49.92 0 001.977.038h1.06zm-116.893 0h1.027c.393 0 .786-.004 1.176-.013-.67.002-1.403.007-2.203.013z"/><path id="a" d="M0 0h320v187H0z"/><linearGradient id="k" x1="50%" x2="50%" y1="100%" y2="0%"><stop offset="0%" stop-color="#FFF"/><stop offset="69.677%" stop-color="#E0F8F7"/><stop offset="100%" stop-color="#0FC8C1"/></linearGradient></defs><g fill="none" fill-rule="evenodd"><path fill="#F3F3F3" d="M-141-1355h1274v4407H-141z"/><g transform="translate(39 -18)"><mask id="b" fill="#fff"><use xlink:href="#a"/></mask><g mask="url(#b)"><g transform="translate(7 18)"><use fill="#000" filter="url(#c)" xlink:href="#d"/><use fill="#000" filter="url(#e)" xlink:href="#d"/><use stroke="#9EB1C7" stroke-width=".801" xlink:href="#d"/></g><g transform="translate(7 18)"><use fill="#000" filter="url(#f)" xlink:href="#g"/><use fill="#000" filter="url(#h)" xlink:href="#g"/><use stroke="#9EB1C7" stroke-width=".801" xlink:href="#g"/></g><g transform="translate(7 18)"><use fill="#000" filter="url(#i)" xlink:href="#j"/><use fill="url(#k)" xlink:href="#j"/><use fill="#000" filter="url(#l)" xlink:href="#j"/><use stroke="#9EB1C7" stroke-width=".996" xlink:href="#j"/></g></g></g></g></svg>